<mxfile host="app.diagrams.net" modified="2024-06-12T09:46:56.635Z" agent="Mozilla/5.0 (Windows NT 10.0; Win64; x64) AppleWebKit/537.36 (KHTML, like Gecko) Chrome/125.0.0.0 Safari/537.36" etag="zesmzbrKdC4sT_X7MHjm" version="24.5.3" type="device">
  <diagram name="Page-1" id="S8YTOZrHcixdIfj45pyo">
    <mxGraphModel dx="977" dy="607" grid="1" gridSize="10" guides="1" tooltips="1" connect="1" arrows="1" fold="1" page="1" pageScale="1" pageWidth="850" pageHeight="1100" math="0" shadow="0">
      <root>
        <mxCell id="0" />
        <mxCell id="1" parent="0" />
        <mxCell id="bSbgGrgNW1VW8Btaw-Oa-1" value="- State state&lt;div&gt;&lt;br&gt;&lt;/div&gt;&lt;div&gt;+ void setState(State state)&lt;/div&gt;&lt;div&gt;&lt;br&gt;&lt;/div&gt;&lt;div&gt;+ State GetState()&lt;/div&gt;" style="whiteSpace=wrap;html=1;aspect=fixed;align=left;" parent="1" vertex="1">
          <mxGeometry x="120" y="430" width="210" height="210" as="geometry" />
        </mxCell>
        <mxCell id="bSbgGrgNW1VW8Btaw-Oa-2" value="&lt;b&gt;Memento&lt;/b&gt;" style="rounded=0;whiteSpace=wrap;html=1;" parent="1" vertex="1">
          <mxGeometry x="120" y="430" width="210" height="60" as="geometry" />
        </mxCell>
        <mxCell id="bSbgGrgNW1VW8Btaw-Oa-3" value="- State state&lt;div&gt;&lt;br&gt;&lt;/div&gt;&lt;div&gt;+ Memento createMemento()&lt;/div&gt;&lt;div&gt;&lt;br&gt;&lt;/div&gt;&lt;div&gt;+ restoreMemento(Memento m)&lt;/div&gt;" style="whiteSpace=wrap;html=1;aspect=fixed;align=left;" parent="1" vertex="1">
          <mxGeometry x="580" y="430" width="210" height="210" as="geometry" />
        </mxCell>
        <mxCell id="bSbgGrgNW1VW8Btaw-Oa-4" value="&lt;b&gt;Originator&lt;/b&gt;" style="rounded=0;whiteSpace=wrap;html=1;" parent="1" vertex="1">
          <mxGeometry x="580" y="430" width="210" height="60" as="geometry" />
        </mxCell>
        <mxCell id="bSbgGrgNW1VW8Btaw-Oa-5" value="" style="endArrow=classic;html=1;rounded=0;" parent="1" source="bSbgGrgNW1VW8Btaw-Oa-1" edge="1">
          <mxGeometry width="50" height="50" relative="1" as="geometry">
            <mxPoint x="330" y="530" as="sourcePoint" />
            <mxPoint x="420" y="670" as="targetPoint" />
            <Array as="points">
              <mxPoint x="420" y="540" />
            </Array>
          </mxGeometry>
        </mxCell>
        <mxCell id="bSbgGrgNW1VW8Btaw-Oa-6" value="" style="endArrow=classic;html=1;rounded=0;exitX=-0.01;exitY=0.535;exitDx=0;exitDy=0;exitPerimeter=0;" parent="1" source="bSbgGrgNW1VW8Btaw-Oa-3" edge="1">
          <mxGeometry width="50" height="50" relative="1" as="geometry">
            <mxPoint x="400" y="540" as="sourcePoint" />
            <mxPoint x="490" y="672" as="targetPoint" />
            <Array as="points">
              <mxPoint x="490" y="542" />
            </Array>
          </mxGeometry>
        </mxCell>
        <mxCell id="bSbgGrgNW1VW8Btaw-Oa-7" value="String xyz;&lt;div&gt;&lt;br&gt;&lt;/div&gt;&lt;div&gt;int someProperty;&lt;/div&gt;" style="whiteSpace=wrap;html=1;aspect=fixed;" parent="1" vertex="1">
          <mxGeometry x="380" y="680" width="140" height="140" as="geometry" />
        </mxCell>
        <mxCell id="bSbgGrgNW1VW8Btaw-Oa-8" value="has a" style="text;html=1;align=center;verticalAlign=middle;resizable=0;points=[];autosize=1;strokeColor=none;fillColor=none;" parent="1" vertex="1">
          <mxGeometry x="325" y="498" width="50" height="30" as="geometry" />
        </mxCell>
        <mxCell id="bSbgGrgNW1VW8Btaw-Oa-9" value="has a" style="text;html=1;align=center;verticalAlign=middle;resizable=0;points=[];autosize=1;strokeColor=none;fillColor=none;" parent="1" vertex="1">
          <mxGeometry x="485" y="508" width="50" height="30" as="geometry" />
        </mxCell>
        <mxCell id="bSbgGrgNW1VW8Btaw-Oa-10" value="- List&amp;lt;Memento&amp;gt; history&lt;div&gt;&lt;br&gt;&lt;/div&gt;&lt;div&gt;+ addMemento(Memento obj)&lt;/div&gt;&lt;div&gt;&lt;br&gt;&lt;/div&gt;&lt;div&gt;+Memento undo()&lt;/div&gt;" style="whiteSpace=wrap;html=1;aspect=fixed;align=left;" parent="1" vertex="1">
          <mxGeometry x="320" y="120" width="250" height="250" as="geometry" />
        </mxCell>
        <mxCell id="bSbgGrgNW1VW8Btaw-Oa-11" value="Caretaker" style="rounded=0;whiteSpace=wrap;html=1;" parent="1" vertex="1">
          <mxGeometry x="320" y="120" width="250" height="60" as="geometry" />
        </mxCell>
        <mxCell id="bSbgGrgNW1VW8Btaw-Oa-12" value="" style="endArrow=classic;html=1;rounded=0;exitX=-0.01;exitY=0.535;exitDx=0;exitDy=0;exitPerimeter=0;" parent="1" edge="1">
          <mxGeometry width="50" height="50" relative="1" as="geometry">
            <mxPoint x="320" y="260" as="sourcePoint" />
            <mxPoint x="232" y="420" as="targetPoint" />
            <Array as="points">
              <mxPoint x="232" y="260" />
            </Array>
          </mxGeometry>
        </mxCell>
        <mxCell id="bSbgGrgNW1VW8Btaw-Oa-13" value="has a&lt;div&gt;&lt;br&gt;&lt;/div&gt;" style="text;html=1;align=center;verticalAlign=middle;resizable=0;points=[];autosize=1;strokeColor=none;fillColor=none;" parent="1" vertex="1">
          <mxGeometry x="235" y="203" width="50" height="40" as="geometry" />
        </mxCell>
        <mxCell id="bSbgGrgNW1VW8Btaw-Oa-14" value="State" style="rounded=0;whiteSpace=wrap;html=1;" parent="1" vertex="1">
          <mxGeometry x="380" y="680" width="140" height="40" as="geometry" />
        </mxCell>
      </root>
    </mxGraphModel>
  </diagram>
</mxfile>
